:FULLY-SPECIFIED
:DEGREES
8
root 8.986169815063477 17.729299545288086 -24.854400634765625 90.00000933466734 -0.0 -0.0
lhipjoint -5.528973971617621e-07 -1.7075472925031877e-06 5.635377011264426e-07
lfemur -9.182862343775628 20.40393168305852 -1.6490119309859437
ltibia 55.68709579372049 -27.4114325639248 9.56627842792888
lfoot 4.202148382124346 1.909153559347631 -1.5806612674662741
ltoes -6.200032075205966 2.5375561493113685 2.1383715062420854
rhipjoint -1.4590168159163821e-06 -1.2806604693773908e-06 -1.1362305144035093e-07
rfemur 2.877204167819766 -29.212801042414576 5.520612241010465
rtibia 16.949710359391727 7.181227596179203 -5.675401829962702
rfoot -5.69048971783926 0.2646255408300948 -1.9611387694508327
rtoes 7.045150591118685 2.5422527581393983 2.701659128083741
lowerback 7.0979103873624485 -0.13318551384450164 -1.223235440487097
upperback 0.40864397482207465 -3.960109956714366 -1.4724029825649836
thorax -3.5111720812965945 -4.185607371501868 -0.7040076080730483
lowerneck -15.878762310743113 9.652635924699936 -4.236722372816128
upperneck 21.015850038347253 -4.784568004161442 -4.515852140513862
head 9.456427641733919 -2.6917182146336107 -2.348420954117722
lclavicle -1.1905593500282093e-07 5.336085289072462e-08 1.7916324053945998e-07
lhumerus -81.57375521978435 -31.289352719922288 -17.286288421311614
lradius 6.4751192715944e-07 -1.3466719912358554e-06 26.654114849132128
lwrist -8.995418790067287e-07 -11.90970352555556 1.2021774073908464e-06
lhand -24.251296987803954 -6.702454387249757 -14.524726826659569
lfingers -9.414104972780149e-07 5.958838404591767e-07 7.125023250159637
lthumb -45.99183009708956 -33.728235687615424 25.646354588042595
rclavicle -2.343282567121354e-08 -1.5207843073856516e-06 -8.563986979746117e-08
rhumerus -68.33741551400075 27.049487179427484 35.04815266924746
rradius 1.4066828750767712e-07 1.168023135443919e-06 -23.014704898951486
rwrist -5.25203162550574e-07 10.890804933477032 4.5423521694314147e-07
rhand 14.23198748015376 -3.4961699976714846 13.519200891202278
rfingers -4.6239122781278693e-07 1.3831930793101032e-07 -7.125021115725521
rthumb -6.7738162036980505 15.246993718179029 -10.659143699850416
9
root 8.98865032196045 17.706199645996094 -24.243499755859375 90.00000933466734 -0.0 -0.0
lhipjoint -5.528973971617621e-07 -1.7075472925031877e-06 5.635377011264426e-07
lfemur -13.530544127866376 21.496391412498085 -2.0194845932186087
ltibia 55.50883810166691 -27.321591670677037 9.581968226226046
lfoot -0.2868261102318692 0.7276627409637709 0.10570662894701559
ltoes -4.950939032625082 2.0050218810945184 1.727299132365807
rhipjoint -1.4590168159163821e-06 -1.2806604693773908e-06 -1.1362305144035093e-07
rfemur 5.178160643291188 -29.009466310823296 4.452897860047031
rtibia 17.12970462704178 7.267166743863595 -5.724894234462261
rfoot -7.442317553618464 -0.6858942131984389 -2.517211790538251
rtoes 6.578266180213293 2.3855938317886936 2.5145823811512074
lowerback 6.857710563499671 -0.7100040339166435 -0.8384838942685501
upperback 0.2734179152826053 -3.7010314899856738 -0.9245913954438133
thorax -3.5446754398359763 -3.5285079551837333 -0.4417262361908694
lowerneck -15.58457581790691 9.696262904249746 -4.158412546434639
upperneck 21.247039988921138 -5.190555729087469 -4.530736403375789
head 9.487526346798633 -2.845121275184335 -2.3202899662473784
lclavicle -1.1905593500282093e-07 5.336085289072462e-08 1.7916324053945998e-07
lhumerus -81.3560156192335 -32.759376768943696 -17.641536805327732
lradius -3.496028556986018e-07 -1.8926614780738531e-06 25.562614761270947
lwrist -7.592778908879405e-07 -10.186801114024538 1.0234927258309783e-06
lhand -26.4867786295614 -6.694455381958027 -13.167397483848784
lfingers -9.414104972780149e-07 5.958838404591767e-07 7.125023250159637
lthumb -48.47265042628657 -34.16619424738581 28.18918278961957
rclavicle -2.343282567121354e-08 -1.5207843073856516e-06 -8.563986979746117e-08
rhumerus -69.82613720587507 27.620637843107705 32.10623992956123
rradius -1.939669796377072e-07 2.028679094915201e-06 -25.468602329987597
rwrist -5.203949272053248e-07 10.78609727972709 4.5064297126370936e-07
rhand 12.940735948694618 -2.6850649700517835 11.523224955333205
rfingers -4.6239122781278693e-07 1.3831930793101032e-07 -7.125021115725521
rthumb -7.329226696435978 16.803184018674735 -12.600211744981756
10
root 9.005080223083496 17.663799285888672 -23.664501190185547 90.00000933466734 -0.0 -0.0
lhipjoint -5.528973971617621e-07 -1.7075472925031877e-06 5.635377011264426e-07
lfemur -17.810864025041518 21.889702733211394 -3.336728409564234
ltibia 52.92990552013725 -26.00796358572329 9.773884589072356
lfoot -3.305301428532536 -0.8331194210057398 1.1686295721767261
ltoes 0.6649916999040842 -0.25594874598494566 -0.24332861079159837
rhipjoint -1.4590168159163821e-06 -1.2806604693773908e-06 -1.1362305144035093e-07
rfemur 7.138671675668615 -29.603924995046185 3.7852626634907405
rtibia 17.656006561084403 7.51943892708437 -5.868163855605625
rfoot -9.944144983381495 -2.1404229108706163 -3.2779354218492336
rtoes 3.906448148613338 1.4564033711559345 1.465195745608445
lowerback 6.567118457714186 -1.948602597559509 -0.41181176853435897
upperback 0.36122725413911233 -3.6867034606542792 -0.2756357790917289
thorax -3.307486235293294 -2.7448126901467047 -0.13990620654438263
lowerneck -16.166236435172486 9.410400704464495 -4.4464117416564575
upperneck 21.05448671093472 -4.984724990241373 -4.891832283095084
head 9.53521302003637 -2.669764492537309 -2.476980909109818
lclavicle -1.1905593500282093e-07 5.336085289072462e-08 1.7916324053945998e-07
lhumerus -81.49018102510007 -33.62028796287795 -17.538930288521215
lradius 9.60648820157533e-08 -1.953784512831346e-06 25.209915745362537
lwrist -7.560303664471042e-07 -10.146297238472716 1.0193194309778988e-06
lhand -27.924620534761 -6.670412689192759 -12.36129172781471
lfingers -9.414104972780149e-07 5.958838404591767e-07 7.125023250159637
lthumb -50.09102959917524 -34.3917100183067 29.78135964930478
rclavicle -2.343282567121354e-08 -1.5207843073856516e-06 -8.563986979746117e-08
rhumerus -71.86029731429909 27.584135604635865 28.282998852964276
rradius 3.081443763145998e-07 1.2820516694395005e-06 -27.555199508217108
rwrist -3.9373177968203555e-07 8.056412177931493 3.5191150584190764e-07
rhand 10.398992893422033 -1.9616736586402093 10.565865513902844
rfingers -4.6239122781278693e-07 1.3831930793101032e-07 -7.125021115725521
rthumb -9.347590284857057 18.5528052764652 -14.139761997112016
11
root 9.028499603271484 17.60379981994629 -23.098400115966797 90.00000933466734 -0.0 -0.0
lhipjoint -5.528973971617621e-07 -1.7075472925031877e-06 5.635377011264426e-07
lfemur -21.028844473243204 22.197168821341393 -4.749953886108287
ltibia 48.693989536530005 -23.80117215357448 9.945335143844371
lfoot -8.336853768836693 -0.40146453886989214 2.797738118477841
ltoes -8.846803376232662 3.6995211644054544 2.974406724332333
rhipjoint -1.4590168159163821e-06 -1.2806604693773908e-06 -1.1362305144035093e-07
rfemur 9.207877057837155 -29.81042893441235 3.205533282212983
rtibia 18.00997257708385 7.689922156315181 -5.9632989992337935
rfoot -11.147894961383605 -1.9741223187327923 -3.6231540999560115
rtoes 5.386979589899165 1.9781342010965286 2.042167224565398
lowerback 6.988212426650166 -3.153508798522054 -0.18990747347732045
upperback 0.06635428727068217 -3.5115535046730573 0.14174663570079696
thorax -3.843720545049587 -1.8518553158438056 0.04366764718981954
lowerneck -16.12638057381817 9.301752885337102 -4.716215739816186
upperneck 20.846425488437795 -5.045689551225615 -5.309701122082349
head 9.471608590937919 -2.6176774699267913 -2.654237338119754
lclavicle -1.1905593500282093e-07 5.336085289072462e-08 1.7916324053945998e-07
lhumerus -80.2158726316508 -34.45110875842372 -19.82793329261488
lradius -4.910693097647016e-08 -2.7306139766734747e-06 24.45381551178942
lwrist -9.214161565507128e-07 -12.173703143581248 1.2297704749187266e-06
lhand -28.29469042927605 -5.461900361791859 -10.027099338398592
lfingers -9.414104972780149e-07 5.958838404591767e-07 7.125023250159637
lthumb -50.213436834385625 -33.82095892069293 32.30490281176022
rclavicle -2.343282567121354e-08 -1.5207843073856516e-06 -8.563986979746117e-08
rhumerus -73.36416153556333 28.02245957952685 24.670375197161132
rradius -6.464348895665467e-08 2.145129939356185e-06 -30.15270337410003
rwrist -3.2687392494505235e-07 6.639858264827529 2.96742138670428e-07
rhand 11.589933705409427 -2.394040001027649 11.512397397951442
rfingers -4.6239122781278693e-07 1.3831930793101032e-07 -7.125021115725521
rthumb -8.529389117576537 17.56374436577587 -13.016335043749258
12
root 9.053680419921875 17.56679916381836 -22.541200637817383 90.00000933466734 -0.0 -0.0
lhipjoint -5.528973971617621e-07 -1.7075472925031877e-06 5.635377011264426e-07
lfemur -23.357689678312845 22.14191771359787 -7.270301800692631
ltibia 42.15747801026029 -20.313175544461973 9.856321557259825
lfoot -9.797137114328018 -1.429355822042684 3.2512291687510726
ltoes -4.91260246147427 1.988842230167816 1.71451739382948
rhipjoint -1.4590168159163821e-06 -1.2806604693773908e-06 -1.1362305144035093e-07
rfemur 11.620567103836935 -29.529373480255497 2.335620966169707
rtibia 16.685212991330275 7.055257136656188 -5.602216779892839
rfoot -11.65979458778761 -2.593072567215467 -3.770602089324131
rtoes 4.450958513209571 1.6502500094947143 1.676062575028662
lowerback 7.084007537306888 -3.678384717132027 0.02264069638652372
upperback -0.11348470029745934 -3.665943527558849 0.48871657697880844
thorax -4.073628127606801 -1.6845464170297582 0.20422895276402236
lowerneck -15.909284718596608 9.615339676737081 -4.489460716447756
upperneck 20.37681070941169 -5.1949846798773995 -4.951006053856313
head 9.260904085232195 -2.767719010188812 -2.493812202772022
lclavicle -1.1905593500282093e-07 5.336085289072462e-08 1.7916324053945998e-07
lhumerus -79.93817080037641 -35.01161115718789 -21.515980395037683
lradius 5.632758269761896e-07 -5.201522858692305e-09 22.857721538615206
lwrist -7.850443531400376e-07 -10.50719077383785 1.0565463731914946e-06
lhand -24.203168059817457 -6.694352929120476 -14.539208535247287
lfingers -9.414104972780149e-07 5.958838404591767e-07 7.125023250159637
lthumb -45.93698709314894 -33.71391619602049 25.60654141537059
rclavicle -2.343282567121354e-08 -1.5207843073856516e-06 -8.563986979746117e-08
rhumerus -74.53439150643996 27.52938139315446 21.098840251857492
rradius -8.816909776903586e-07 2.8794559971014822e-06 -32.458489860531714
rwrist -2.2929890920543078e-07 4.606060583316336 2.1267615999597965e-07
rhand 11.657122276274844 -2.3759325292077107 11.361729401276486
rfingers -4.6239122781278693e-07 1.3831930793101032e-07 -7.125021115725521
rthumb -8.42768930838234 17.582211489744292 -13.114912602719114
